<svg width="60" height="60" viewBox="0 0 60 60" fill="none" xmlns="http://www.w3.org/2000/svg">
<rect width="60" height="60" rx="30" fill="#CE2127"/>
<mask id="mask0_265_3379" style="mask-type:luminance" maskUnits="userSpaceOnUse" x="16" y="16" width="28" height="28">
<path d="M43.5 16.5H16.5V43.5H43.5V16.5Z" fill="white"/>
</mask>
<g mask="url(#mask0_265_3379)">
<path d="M40.6592 29.2878H43.5013C43.5013 21.998 37.9976 16.5 30.6978 16.5V19.3421C36.47 19.3421 40.6592 23.5242 40.6592 29.2878Z" fill="white"/>
<path d="M30.7107 25.026C33.6991 25.026 34.9738 26.3006 34.9738 29.2891H37.8159C37.8159 24.7062 35.2936 22.1839 30.7107 22.1839V25.026ZM35.5735 32.7607C35.0065 32.2449 34.1311 32.2719 33.5969 32.8218L30.1964 36.3189C29.3778 36.1626 27.7322 35.6496 26.0384 33.96C24.3445 32.2647 23.8315 30.6149 23.6794 29.8021L27.1738 26.4001C27.7251 25.8658 27.7507 24.9919 27.2349 24.4235L21.9842 18.6498C21.4683 18.08 20.5916 18.026 20.0075 18.5262L16.9239 21.1707C16.678 21.418 16.5317 21.7448 16.5118 22.093C16.4905 22.4482 16.084 30.8636 22.6094 37.3918C28.3021 43.083 35.4328 43.4993 37.3966 43.4993C37.6837 43.4993 37.8599 43.4908 37.9068 43.488C38.255 43.4681 38.5818 43.3217 38.8276 43.0744L41.4708 39.9894C41.9724 39.4054 41.9156 38.5301 41.3486 38.0128L35.5735 32.7607Z" fill="white"/>
</g>
</svg>
