<svg width="64" height="64" viewBox="0 0 64 64" fill="none" xmlns="http://www.w3.org/2000/svg">
<path d="M32 2C26.0666 2 20.2664 3.75947 15.3329 7.05591C10.3994 10.3524 6.55426 15.0377 4.28363 20.5195C2.013 26.0013 1.4189 32.0333 2.57646 37.8527C3.73401 43.6721 6.59123 49.0176 10.7868 53.2132C14.9824 57.4088 20.3279 60.266 26.1473 61.4236C31.9667 62.5811 37.9987 61.987 43.4805 59.7164C48.9623 57.4458 53.6477 53.6006 56.9441 48.6671C60.2405 43.7336 62 37.9334 62 32C62 24.0435 58.8393 16.4129 53.2132 10.7868C47.5871 5.16071 39.9565 2 32 2ZM33.286 20.428C36.0131 20.4312 38.6275 21.5159 40.5558 23.4442C42.4841 25.3725 43.5688 27.987 43.572 30.714H41C40.9979 28.6688 40.1845 26.7079 38.7383 25.2617C37.2921 23.8155 35.3312 23.0021 33.286 23V20.428ZM41.616 50C41.538 50 33.816 49.868 23.886 40.114C14.132 30.188 14 22.462 14 22.384C14 21.422 20 14 21.326 14C21.786 14 22.144 14.312 22.536 14.78C23.48 15.904 27.654 22.492 27.462 23.59C27.37 24.106 26.932 24.498 25.676 25.552C25.0571 26.0385 24.478 26.5735 23.944 27.152C24.1997 28.2104 24.5797 29.2348 25.076 30.204C26.9251 34.0059 29.9973 37.0767 33.8 38.924C34.7692 39.4203 35.7936 39.8003 36.852 40.056C37.4305 39.522 37.9655 38.9429 38.452 38.324C39.506 37.068 39.898 36.63 40.414 36.538C41.512 36.338 48.1 40.52 49.224 41.464C49.692 41.864 50.004 42.214 50.004 42.674C50 44 42.578 50 41.616 50ZM47.428 30.714C47.4238 26.9646 45.9325 23.37 43.2812 20.7188C40.63 18.0676 37.0354 16.5762 33.286 16.572V14C37.7172 14.0053 41.9654 15.7679 45.0988 18.9013C48.2321 22.0346 49.9947 26.2828 50 30.714H47.428Z" fill="#08815C"/>
</svg>
