<svg width="148" height="30" viewBox="0 0 148 30" fill="none" xmlns="http://www.w3.org/2000/svg">
<path d="M43.0551 2.72623C43.3659 1.82953 44.6341 1.82953 44.9449 2.72623L47.3591 9.69222C47.4987 10.0948 47.8779 10.3647 48.304 10.3647H55.9724C56.9567 10.3647 57.3489 11.6371 56.5354 12.1912L50.4449 16.3397C50.0716 16.5939 49.9151 17.0669 50.063 17.4936L52.4151 24.2803C52.7305 25.1904 51.7033 25.9765 50.9073 25.4343L44.563 21.1129C44.2233 20.8816 43.7767 20.8816 43.437 21.1129L37.0927 25.4343C36.2967 25.9765 35.2695 25.1904 35.5849 24.2803L37.937 17.4936C38.0849 17.0669 37.9284 16.5939 37.5551 16.3397L31.4646 12.1912C30.6511 11.6371 31.0433 10.3647 32.0276 10.3647H39.696C40.1221 10.3647 40.5013 10.0948 40.6409 9.69222L43.0551 2.72623Z" fill="#1D429A"/>
<path d="M15.0551 2.72623C15.3659 1.82953 16.6341 1.82953 16.9449 2.72623L19.3591 9.69222C19.4987 10.0948 19.8779 10.3647 20.304 10.3647H27.9724C28.9567 10.3647 29.3489 11.6371 28.5354 12.1912L22.4449 16.3397C22.0716 16.5939 21.9151 17.0669 22.063 17.4936L24.4151 24.2803C24.7305 25.1904 23.7033 25.9765 22.9073 25.4343L16.563 21.1129C16.2233 20.8816 15.7767 20.8816 15.437 21.1129L9.09272 25.4343C8.29666 25.9765 7.26949 25.1904 7.58491 24.2803L9.93704 17.4936C10.0849 17.0669 9.92843 16.5939 9.55513 16.3397L3.46464 12.1912C2.65115 11.6371 3.04332 10.3647 4.02759 10.3647H11.696C12.1221 10.3647 12.5013 10.0948 12.6409 9.69222L15.0551 2.72623Z" fill="#1D429A"/>
<path d="M73.0551 2.72623C73.3659 1.82953 74.6341 1.82953 74.9449 2.72623L77.3591 9.69222C77.4987 10.0948 77.8779 10.3647 78.304 10.3647H85.9724C86.9567 10.3647 87.3489 11.6371 86.5354 12.1912L80.4449 16.3397C80.0716 16.5939 79.9151 17.0669 80.063 17.4936L82.4151 24.2803C82.7305 25.1904 81.7033 25.9765 80.9073 25.4343L74.563 21.1129C74.2233 20.8816 73.7767 20.8816 73.437 21.1129L67.0927 25.4343C66.2967 25.9765 65.2695 25.1904 65.5849 24.2803L67.937 17.4936C68.0849 17.0669 67.9284 16.5939 67.5551 16.3397L61.4646 12.1912C60.6511 11.6371 61.0433 10.3647 62.0276 10.3647H69.696C70.1221 10.3647 70.5013 10.0948 70.6409 9.69222L73.0551 2.72623Z" fill="#1D429A"/>
<path d="M103.055 2.72623C103.366 1.82953 104.634 1.82953 104.945 2.72623L107.359 9.69222C107.499 10.0948 107.878 10.3647 108.304 10.3647H115.972C116.957 10.3647 117.349 11.6371 116.535 12.1912L110.445 16.3397C110.072 16.5939 109.915 17.0669 110.063 17.4936L112.415 24.2803C112.731 25.1904 111.703 25.9765 110.907 25.4343L104.563 21.1129C104.223 20.8816 103.777 20.8816 103.437 21.1129L97.0927 25.4343C96.2967 25.9765 95.2695 25.1904 95.5849 24.2803L97.937 17.4936C98.0849 17.0669 97.9284 16.5939 97.5551 16.3397L91.4646 12.1912C90.6511 11.6371 91.0433 10.3647 92.0276 10.3647H99.696C100.122 10.3647 100.501 10.0948 100.641 9.69222L103.055 2.72623Z" fill="#1D429A"/>
<path d="M131.552 2.82351C131.857 1.91456 133.143 1.91456 133.448 2.82351L135.751 9.68303C135.888 10.0903 136.269 10.3647 136.699 10.3647H144.08C145.057 10.3647 145.455 11.621 144.656 12.1828L138.741 16.3414C138.379 16.596 138.227 17.0582 138.368 17.4777L140.641 24.2459C140.948 25.1615 139.907 25.9377 139.117 25.3822L133.075 21.1339C132.73 20.8913 132.27 20.8913 131.925 21.1339L125.883 25.3822C125.093 25.9377 124.052 25.1615 124.359 24.2459L126.632 17.4777C126.773 17.0582 126.621 16.596 126.259 16.3414L120.344 12.1828C119.545 11.621 119.943 10.3647 120.92 10.3647H128.301C128.731 10.3647 129.112 10.0903 129.249 9.68303L131.552 2.82351Z" fill="#1D429A"/>
</svg>
