<svg width="60" height="60" viewBox="0 0 60 60" fill="none" xmlns="http://www.w3.org/2000/svg">
<rect width="60" height="60" rx="30" fill="#CE2127"/>
<path d="M15.006 45L17.034 37.548C15.6977 35.2573 14.9957 32.652 15 30C15 21.7155 21.7155 15 30 15C38.2845 15 45 21.7155 45 30C45 38.2845 38.2845 45 30 45C27.3492 45.0043 24.745 44.3027 22.455 42.9675L15.006 45ZM24.5865 22.962C24.3928 22.974 24.2035 23.025 24.03 23.112C23.8673 23.2041 23.7188 23.3193 23.589 23.454C23.409 23.6235 23.307 23.7705 23.1975 23.913C22.6431 24.6345 22.3449 25.5201 22.35 26.43C22.353 27.165 22.545 27.8805 22.845 28.5495C23.4585 29.9025 24.468 31.335 25.8015 32.6625C26.1225 32.982 26.436 33.303 26.7735 33.6015C28.4286 35.0587 30.4009 36.1095 32.5335 36.6705L33.387 36.801C33.6645 36.816 33.942 36.795 34.221 36.7815C34.6579 36.7589 35.0844 36.6406 35.4705 36.435C35.7195 36.303 35.8365 36.237 36.045 36.105C36.045 36.105 36.1095 36.063 36.2325 35.97C36.435 35.82 36.5595 35.7135 36.7275 35.538C36.852 35.409 36.96 35.2575 37.0425 35.085C37.1595 34.8405 37.2765 34.374 37.3245 33.9855C37.3605 33.6885 37.35 33.5265 37.3455 33.426C37.3395 33.2655 37.206 33.099 37.0605 33.0285L36.1875 32.637C36.1875 32.637 34.8825 32.0685 34.086 31.7055C34.002 31.6689 33.912 31.648 33.8205 31.644C33.7179 31.6334 33.6142 31.645 33.5164 31.6779C33.4186 31.7107 33.329 31.7641 33.2535 31.8345V31.8315C33.246 31.8315 33.1455 31.917 32.061 33.231C31.9988 33.3146 31.913 33.3778 31.8147 33.4126C31.7164 33.4473 31.61 33.452 31.509 33.426C31.4113 33.3999 31.3155 33.3668 31.2225 33.327C31.0365 33.249 30.972 33.219 30.8445 33.1635L30.837 33.1605C29.9789 32.7858 29.1843 32.2798 28.482 31.6605C28.293 31.4955 28.1175 31.3155 27.9375 31.1415C27.3474 30.5763 26.8331 29.937 26.4075 29.2395L26.319 29.097C26.2554 29.0012 26.2041 28.8979 26.166 28.7895C26.109 28.569 26.2575 28.392 26.2575 28.392C26.2575 28.392 26.622 27.993 26.7915 27.777C26.9326 27.5975 27.0643 27.4107 27.186 27.2175C27.363 26.9325 27.4185 26.64 27.3255 26.4135C26.9055 25.3875 26.4705 24.366 26.0235 23.352C25.935 23.151 25.6725 23.007 25.434 22.9785C25.353 22.9695 25.272 22.9605 25.191 22.9545C24.9896 22.9445 24.7877 22.948 24.5865 22.962Z" fill="white"/>
</svg>
