<svg width="60" height="60" viewBox="0 0 60 60" fill="none" xmlns="http://www.w3.org/2000/svg">
<rect width="60" height="60" rx="30" fill="#CE2127"/>
<path d="M14.0633 34.2456C16.0894 34.2456 17.9948 34.2322 19.8867 34.2456C20.9468 34.259 21.5237 34.7017 21.6311 35.5468C21.7518 36.6064 21.1346 37.3174 19.9807 37.3308C17.8069 37.3576 15.6466 37.3442 13.4729 37.3442C12.8422 37.3442 12.225 37.371 11.5943 37.3308C10.8161 37.2905 10.0513 37.1296 9.67556 36.3247C9.29985 35.5199 9.56821 34.7956 10.0781 34.1383C12.1445 31.5092 14.2243 28.8667 16.3041 26.2376C16.4249 26.0767 16.5456 25.9157 16.6664 25.7682C16.5322 25.5401 16.3443 25.6474 16.1833 25.634C14.7342 25.6206 13.2716 25.634 11.8224 25.6206C11.487 25.6206 11.1515 25.5804 10.8295 25.5133C10.0647 25.3389 9.59505 24.5743 9.76948 23.8232C9.89024 23.3134 10.2928 22.8976 10.8027 22.7769C11.1247 22.6964 11.4602 22.6562 11.7956 22.6562C14.184 22.6428 16.5859 22.6428 18.9743 22.6562C19.4037 22.6428 19.8196 22.6964 20.2356 22.8037C21.148 23.1122 21.5372 23.9573 21.1749 24.8426C20.8528 25.6072 20.3429 26.2645 19.8331 26.9217C18.0753 29.1618 16.3175 31.3885 14.5597 33.6018C14.4121 33.7761 14.278 33.9505 14.0633 34.2456Z" fill="white"/>
<path d="M29.7926 27.583C30.1146 27.1671 30.4501 26.7781 31.0002 26.6708C32.0603 26.4562 33.0532 27.1403 33.0666 28.2134C33.1069 30.8962 33.0935 33.5789 33.0666 36.2616C33.0666 36.9592 32.6104 37.5762 31.9529 37.7774C31.282 38.0323 30.5172 37.831 30.0744 37.2543C29.8463 36.9726 29.7524 36.9189 29.4303 37.1738C28.2093 38.1664 26.8272 38.3408 25.3378 37.8579C22.9494 37.0799 21.9699 35.2154 21.7015 32.9485C21.4197 30.4937 22.2382 28.4012 24.4388 27.1135C26.2636 26.027 28.1153 26.1209 29.7926 27.583ZM25.0426 32.479C25.0694 33.0692 25.2573 33.6326 25.6062 34.102C26.3307 35.0678 27.7128 35.269 28.6923 34.5447C28.8533 34.424 29.0009 34.2764 29.1351 34.102C29.8865 33.0826 29.8865 31.4059 29.1351 30.3864C28.7594 29.8633 28.169 29.5548 27.5384 29.5414C26.0624 29.4475 25.0292 30.5876 25.0426 32.479ZM39.0913 32.5595C38.984 29.1121 41.2517 26.5367 44.472 26.4428C47.8936 26.3355 50.3894 28.6292 50.4967 31.9827C50.6041 35.3763 48.5243 37.7774 45.3173 38.0993C41.8152 38.4481 39.0377 35.9129 39.0913 32.5595ZM42.4593 32.2375C42.4325 32.9082 42.6337 33.5655 43.0363 34.1154C43.7743 35.0812 45.1563 35.269 46.1224 34.5179C46.27 34.4105 46.3908 34.2764 46.5116 34.1423C47.2898 33.1228 47.2898 31.4059 46.525 30.3864C46.1493 29.8767 45.5589 29.5548 44.9282 29.5414C43.4791 29.4609 42.4593 30.5608 42.4593 32.2375ZM37.9106 29.8901C37.9106 31.9693 37.924 34.0484 37.9106 36.1275C37.924 37.0799 37.1726 37.8713 36.2199 37.8981C36.0589 37.8981 35.8844 37.8847 35.7234 37.8445C35.0525 37.6701 34.5426 36.9592 34.5426 36.1141V25.4502C34.5426 24.8197 34.5292 24.2027 34.5426 23.5723C34.556 22.5394 35.2135 21.8687 36.2065 21.8687C37.2262 21.8553 37.9106 22.526 37.9106 23.5991C37.924 25.6916 37.9106 27.7976 37.9106 29.8901Z" fill="white"/>
</svg>
